<?xml version="1.0" encoding="iso-8859-1"?>
<!-- Generator: Adobe Illustrator 26.1.0, SVG Export Plug-In . SVG Version: 6.00 Build 0)  -->
<svg version="1.1" id="Layer_1" xmlns="http://www.w3.org/2000/svg" xmlns:xlink="http://www.w3.org/1999/xlink" x="0px" y="0px"
	 viewBox="0 0 48 48" style="enable-background:new 0 0 48 48;" xml:space="preserve">
<g>
	<g>
		<path style="fill:#5A45FF;" d="M30,42H18c-6.627,0-12-5.373-12-12V18c0-6.627,5.373-12,12-12h12c6.627,0,12,5.373,12,12v12
			C42,36.627,36.627,42,30,42z"/>
	</g>
	<g>
		<path style="fill:#FFFFFF;" d="M17.479,36c-1.558,0-3.042-0.7-4.03-1.947c-1.181-1.489-1.427-3.486-0.644-5.214c0,0,0,0,0,0
			l6.521-14.356c0.84-1.85,2.635-2.998,4.686-2.998s3.846,1.148,4.686,2.998l6.497,14.303c0.789,1.737,0.536,3.743-0.66,5.235
			c-1.221,1.522-3.176,2.216-5.096,1.812c-0.29-0.061-0.568-0.164-0.827-0.307c-2.734-1.502-6.03-1.562-8.816-0.155l-0.525,0.265
			c-0.242,0.121-0.499,0.21-0.765,0.263C18.162,35.967,17.819,36,17.479,36z M18.269,31.319L18.269,31.319c0-0.001,0-0.002,0-0.002
			L18.269,31.319z M24.012,18.675l-4.743,10.441c3.08-1.002,6.394-1.011,9.471-0.032L24.012,18.675z"/>
	</g>
</g>
</svg>